<?xml version="1.0" encoding="UTF-8"?>
<svg id="instagram" xmlns="http://www.w3.org/2000/svg" viewBox="0 0 2500 2500">
  <defs>
    <style>
      .cls-1 {
        fill: #c22126;
      }
    </style>
  </defs>
  <path class="cls-1" d="M910.68,1250c0-185.19,151.89-335.36,339.31-335.36s339.39,150.17,339.39,335.36-151.97,335.36-339.39,335.36-339.31-150.17-339.31-335.36M727.21,1250c0,285.3,234.05,516.57,522.78,516.57s522.78-231.27,522.78-516.57-234.05-516.57-522.78-516.57-522.78,231.27-522.78,516.57M1671.29,712.95c0,66.63,54.69,120.75,122.2,120.75s122.2-54.12,122.2-120.75-54.69-120.67-122.2-120.67-122.2,54.04-122.2,120.67M838.64,2068.86c-99.26-4.47-153.21-20.8-189.06-34.62-47.53-18.28-81.41-40.06-117.11-75.25-35.61-35.19-57.73-68.66-76.15-115.63-13.98-35.43-30.51-88.74-35.03-186.82-4.93-106.04-5.92-137.9-5.92-406.54s1.07-300.42,5.92-406.54c4.52-98.08,21.13-151.31,35.03-186.82,18.5-46.97,40.54-80.45,76.15-115.71,35.61-35.19,69.49-57.04,117.11-75.25,35.86-13.81,89.8-30.15,189.06-34.62,107.32-4.88,139.56-5.85,411.35-5.85s304.03,1.06,411.43,5.85c99.26,4.47,153.12,20.88,189.06,34.62,47.53,18.2,81.41,40.06,117.11,75.25,35.61,35.19,57.65,68.75,76.15,115.71,13.98,35.43,30.51,88.74,35.03,186.82,4.93,106.13,5.92,137.9,5.92,406.54s-.99,300.42-5.92,406.54c-4.52,98.08-21.13,151.39-35.03,186.82-18.5,46.97-40.54,80.45-76.15,115.63-35.61,35.19-69.57,56.96-117.11,75.25-35.86,13.81-89.8,30.15-189.06,34.62-107.32,4.88-139.56,5.85-411.43,5.85s-304.03-.98-411.35-5.85M830.25,250.09c-108.39,4.88-182.4,21.86-247.12,46.72-66.94,25.68-123.68,60.13-180.35,116.04-56.58,55.91-91.45,111.98-117.43,178.2-25.16,63.95-42.35,137.09-47.29,244.19-5.02,107.26-6.17,141.56-6.17,414.75s1.15,307.49,6.17,414.75c4.93,107.1,22.12,180.23,47.29,244.19,25.99,66.15,60.77,122.3,117.43,178.2,56.58,55.91,113.32,90.28,180.35,116.04,64.8,24.87,138.73,41.85,247.12,46.72,108.63,4.88,143.26,6.09,419.74,6.09s311.18-1.14,419.74-6.09c108.39-4.88,182.4-21.86,247.12-46.72,66.94-25.76,123.68-60.13,180.35-116.04,56.58-55.91,91.37-112.06,117.43-178.2,25.16-63.95,42.43-137.09,47.29-244.19,4.93-107.34,6.09-141.56,6.09-414.75s-1.15-307.49-6.09-414.75c-4.93-107.1-22.12-180.23-47.29-244.19-26.07-66.15-60.86-122.22-117.43-178.2-56.58-55.91-113.4-90.36-180.26-116.04-64.8-24.87-138.82-41.93-247.12-46.72-108.55-4.88-143.26-6.09-419.74-6.09s-311.18,1.14-419.82,6.09"/>
</svg>