<?xml version="1.0" encoding="UTF-8"?>
<svg id="Layer_2" data-name="Layer 2" xmlns="http://www.w3.org/2000/svg" viewBox="0 0 520.21 68.14">
  <defs>
    <style>
      .cls-1 {
        fill: #c22126;
      }

      .cls-2 {
        fill: #c2151c;
      }

      .cls-3 {
        fill: #2d2a2b;
      }
    </style>
  </defs>
  <g id="BLACK">
    <g>
      <path class="cls-3" d="M164.24,53.15h-12.97l-3.75,14.99h-13.07l15.19-62.66-5.48-5.48h20.37l16.53,68.14h-13.07l-3.75-14.99ZM154.34,40.85h6.82l-3.36-13.55-3.46,13.55Z"/>
      <path class="cls-3" d="M221.62,39.02v22.3l6.82,6.82h-20.47v-21.34l-10.67-5.86v27.2h-13.65V6.82l-6.82-6.82h20.47v27.29l10.67-3.65V0h13.65v31.14l-8.94,2.98,8.94,4.9Z"/>
      <path class="cls-3" d="M243.82,54.49h27.2l-6.82,13.65h-34.02V6.82l-6.82-6.82h47.67l-6.82,13.65h-20.37v13.65h20.37l-6.82,13.65h-13.55v13.55Z"/>
      <path class="cls-3" d="M303.6,0h13.65v61.32l6.82,6.82h-20.47l-10.67-34.02v34.02h-13.65V6.82l-6.82-6.82h20.47l10.67,34.12V0Z"/>
      <path class="cls-2" d="M332.81,68.14c-1.67,0-3.11-.61-4.32-1.83-1.22-1.22-1.83-2.66-1.83-4.32,0-1.47.48-2.79,1.44-3.94l-2.11-2.21h6.82c1.67,0,3.11.61,4.33,1.83,1.22,1.22,1.83,2.66,1.83,4.32,0,1.47-.51,2.82-1.54,4.04l2.21,2.11h-6.82Z"/>
      <path class="cls-2" d="M345.58,13.65h-19.03l6.82-13.65h44.79l-6.82,13.65h-12.21v47.67l6.82,6.82h-20.37V13.65Z"/>
      <path class="cls-2" d="M400.08,54.49h27.2l-6.82,13.65h-34.02V6.82l-6.82-6.82h47.67l-6.82,13.65h-20.37v13.65h20.37l-6.82,13.65h-13.55v13.55Z"/>
      <path class="cls-2" d="M467.16,54.49l-6.82,13.65h-17.49c-1.86,0-3.62-.51-5.29-1.54-1.67-1.02-3.12-2.34-4.37-3.94-1.25-1.6-2.23-3.38-2.93-5.33-.71-1.95-1.06-3.86-1.06-5.72V16.53c0-1.86.35-3.76,1.06-5.72.7-1.95,1.68-3.73,2.93-5.33,1.25-1.6,2.71-2.91,4.37-3.94,1.67-1.02,3.43-1.54,5.29-1.54h24.31l-6.82,13.65h-12.11c-1.86,0-3.21.62-4.04,1.87-.83,1.25-1.28,2.77-1.34,4.57v27.97c.06,1.79.51,3.32,1.34,4.56.83,1.25,2.18,1.87,4.04,1.87h18.93Z"/>
      <path class="cls-2" d="M499.74,0h13.65v61.32l6.82,6.82h-20.47v-29.02l-10.67,3.56v25.47h-13.65V6.82l-6.82-6.82h20.47v29.02l10.67-3.56V0Z"/>
      <g>
        <polyline class="cls-3" points="44.79 31.14 44.79 0 31.14 0 31.14 23.64 20.47 27.29 20.47 0 0 0 6.82 6.82 6.82 68.14 20.47 68.14 20.47 40.94"/>
        <path class="cls-1" d="M51.61,68.14l-6.82-6.82v-17.13l-4.49-2.61-9.16,5.23v21.34h20.47Z"/>
        <path class="cls-3" d="M77.65,0v47.67c0,1.86-.42,3.46-1.25,4.81-.83,1.35-2.18,2.02-4.04,2.02s-3.3-.67-4.13-2.02c-.83-1.35-1.25-2.95-1.25-4.81V0h-20.47l6.82,6.82v44.79c0,1.86.35,3.76,1.06,5.72.7,1.96,1.68,3.73,2.93,5.33,1.25,1.6,2.69,2.92,4.32,3.94,1.63,1.03,3.41,1.54,5.33,1.54h10.67c1.92,0,3.7-.51,5.33-1.54,1.63-1.02,3.08-2.34,4.32-3.94,1.25-1.6,2.23-3.38,2.93-5.33.7-1.95,1.06-3.86,1.06-5.72V0h-13.65Z"/>
      </g>
      <polygon class="cls-3" points="132.53 0 94.57 0 94.57 20.47 101.39 13.65 118.98 13.65 110.81 27.29 102.83 27.29 94.57 40.94 102.64 40.94 94.57 54.49 94.57 68.14 132.53 68.14 132.53 47.67 125.7 54.49 108.21 54.49 116.29 40.94 124.26 40.94 132.53 27.29 124.46 27.29 132.53 13.65 132.53 0"/>
    </g>
  </g>
</svg>