<?xml version="1.0" encoding="UTF-8"?>
<svg id="github" xmlns="http://www.w3.org/2000/svg" viewBox="0 0 2500 2500">
  <defs>
    <style>
      .cls-1 {
        fill: #c22126;
      }
    </style>
  </defs>
  <path class="cls-1" d="M1249.86,244c-568.04.02-1028.5,460.53-1028.48,1028.56.02,442.67,283.28,835.67,703.22,975.68,51.42,9,70.71-21.85,70.71-48.85,0-24.43-1.29-105.42-1.29-191.55-258.41,47.57-325.26-62.99-345.83-120.84-22.82-56.27-59.01-106.13-105.42-145.28-36-19.28-87.42-66.85-1.29-68.13,66.75,7.24,125.77,46.59,158.13,105.42,59.05,106.08,192.91,144.21,298.99,85.15.18-.1.36-.2.55-.31,4.45-52.29,27.75-101.17,65.57-137.55-228.84-25.71-467.96-114.42-467.96-507.81-1.45-102.22,36.27-201.11,105.42-276.4-31.44-88.84-27.76-186.33,10.28-272.55,0,0,86.13-27,282.83,105.42,168.29-46.28,345.95-46.28,514.24,0,196.69-133.7,282.83-105.42,282.83-105.42,38.05,86.21,41.73,183.71,10.28,272.55,69.35,75.16,107.11,174.14,105.42,276.4,0,394.67-240.41,482.1-469.24,507.81,49.66,50.34,75,119.77,69.42,190.27,0,137.56-1.29,248.12-1.29,282.83,0,27,19.28,59.14,70.71,48.85,538.6-181.35,828.21-764.98,646.86-1303.59-140.91-418.49-533.11-700.43-974.69-700.66Z"/>
</svg>