<?xml version="1.0" encoding="UTF-8"?>
<svg id="tiktok" xmlns="http://www.w3.org/2000/svg" viewBox="0 0 2500 2500">
  <defs>
    <style>
      .cls-1 {
        fill: #c22126;
      }
    </style>
  </defs>
  <path class="cls-1" d="M2140.38,1106.55v-351.2c-164.47,0-289.99-43.9-370.99-129.23-83.13-97.38-129.71-220.7-131.7-348.73v-25.35l-332.04-8.04v1426.45c-30.74,167.95-191.81,279.19-359.76,248.45-167.95-30.74-279.19-191.81-248.45-359.76,30.74-167.95,191.81-279.19,359.76-248.45,16.36,2.99,32.45,7.3,48.12,12.89v-340.07c-34.75-5.69-69.9-8.59-105.11-8.66-353.78,0-640.58,286.8-640.58,640.58s286.8,640.58,640.58,640.58,640.58-286.8,640.58-640.58c-.07-26.25-1.72-52.47-4.95-78.53v-565.76c150.98,94.29,326.64,141.43,504.55,135.41Z"/>
</svg>